<?xml version="1.0" encoding="UTF-8"?>
<svg width="74px" height="34px" viewBox="0 0 74 34" version="1.1" xmlns="http://www.w3.org/2000/svg" xmlns:xlink="http://www.w3.org/1999/xlink">
    <title>02487F96-431E-4AB8-B22B-E3844D7F43FC</title>
    <g id="Page-3" stroke="none" stroke-width="1" fill="none" fill-rule="evenodd">
        <g id="desktop" transform="translate(-175.000000, -12.000000)">
            <g id="Group-2" transform="translate(175.000000, 12.000000)">
                <rect id="Rectangle" fill="#D8D8D8" x="0" y="0" width="74" height="34" rx="4"></rect>
                <path d="M23.742,22 L23.742,19.872 L19.528,19.872 L19.528,12.032 L16.896,12.032 L16.896,22 L23.742,22 Z M29.748,22.126 C30.7746667,22.126 31.659,21.916 32.401,21.496 C33.143,21.076 33.717,20.4833333 34.123,19.718 C34.529,18.9526667 34.732,18.0473333 34.732,17.002 C34.732,15.966 34.529,15.0653333 34.123,14.3 C33.717,13.5346667 33.143,12.9443333 32.401,12.529 C31.659,12.1136667 30.7746667,11.906 29.748,11.906 C28.7213333,11.906 27.8346667,12.1136667 27.088,12.529 C26.3413333,12.9443333 25.7626667,13.5346667 25.352,14.3 C24.9413333,15.0653333 24.736,15.966 24.736,17.002 C24.736,18.0473333 24.939,18.9526667 25.345,19.718 C25.751,20.4833333 26.3296667,21.076 27.081,21.496 C27.8323333,21.916 28.7213333,22.126 29.748,22.126 Z M29.748,20.124 C29.02,20.124 28.4413333,19.865 28.012,19.347 C27.5826667,18.829 27.368,18.0473333 27.368,17.002 C27.368,15.966 27.5826667,15.1913333 28.012,14.678 C28.4413333,14.1646667 29.02,13.908 29.748,13.908 C30.476,13.908 31.057,14.167 31.491,14.685 C31.925,15.203 32.142,15.9753333 32.142,17.002 C32.142,18.038 31.925,18.8173333 31.491,19.34 C31.057,19.8626667 30.476,20.124 29.748,20.124 Z M41.312,22.126 C41.7693333,22.126 42.222,22.098 42.67,22.042 C43.118,21.986 43.5496667,21.902 43.965,21.79 C44.3803333,21.678 44.7653333,21.538 45.12,21.37 L45.12,21.37 L45.12,16.372 L41.018,16.372 L41.018,18.15 L42.754,18.15 L42.753,19.995 L42.6808889,20.012 L42.6808889,20.012 L42.362,20.068 C42.0446667,20.1146667 41.7366667,20.138 41.438,20.138 C40.4953333,20.138 39.7976667,19.8813333 39.345,19.368 C38.8923333,18.8546667 38.666,18.066 38.666,17.002 C38.666,15.9753333 38.883,15.2123333 39.317,14.713 C39.751,14.2136667 40.4113333,13.964 41.298,13.964 C41.7833333,13.964 42.236,14.0316667 42.656,14.167 C43.076,14.3023333 43.5193333,14.5193333 43.986,14.818 L43.986,14.818 L44.812,12.956 C44.4106667,12.6293333 43.8903333,12.3726667 43.251,12.186 C42.6116667,11.9993333 41.9326667,11.906 41.214,11.906 C40.1593333,11.906 39.2423333,12.1136667 38.463,12.529 C37.6836667,12.9443333 37.0793333,13.5346667 36.65,14.3 C36.2206667,15.0653333 36.006,15.966 36.006,17.002 C36.006,18.066 36.2206667,18.9806667 36.65,19.746 C37.0793333,20.5113333 37.6906667,21.0993333 38.484,21.51 C39.2773333,21.9206667 40.22,22.126 41.312,22.126 Z M51.532,22.126 C52.5586667,22.126 53.443,21.916 54.185,21.496 C54.927,21.076 55.501,20.4833333 55.907,19.718 C56.313,18.9526667 56.516,18.0473333 56.516,17.002 C56.516,15.966 56.313,15.0653333 55.907,14.3 C55.501,13.5346667 54.927,12.9443333 54.185,12.529 C53.443,12.1136667 52.5586667,11.906 51.532,11.906 C50.5053333,11.906 49.6186667,12.1136667 48.872,12.529 C48.1253333,12.9443333 47.5466667,13.5346667 47.136,14.3 C46.7253333,15.0653333 46.52,15.966 46.52,17.002 C46.52,18.0473333 46.723,18.9526667 47.129,19.718 C47.535,20.4833333 48.1136667,21.076 48.865,21.496 C49.6163333,21.916 50.5053333,22.126 51.532,22.126 Z M51.532,20.124 C50.804,20.124 50.2253333,19.865 49.796,19.347 C49.3666667,18.829 49.152,18.0473333 49.152,17.002 C49.152,15.966 49.3666667,15.1913333 49.796,14.678 C50.2253333,14.1646667 50.804,13.908 51.532,13.908 C52.26,13.908 52.841,14.167 53.275,14.685 C53.709,15.203 53.926,15.9753333 53.926,17.002 C53.926,18.038 53.709,18.8173333 53.275,19.34 C52.841,19.8626667 52.26,20.124 51.532,20.124 Z" id="LOGO" fill="#444444" fill-rule="nonzero"></path>
            </g>
        </g>
    </g>
</svg>